<svg width="120" height="96" viewBox="0 0 120 96" fill="none" xmlns="http://www.w3.org/2000/svg">
<path d="M33.0471 84.6503C24.0745 84.7162 17.9569 81.2042 14.6941 74.1149C13.5647 71.6206 13 68.5026 13 64.7611C13 60.9539 13.3137 56.917 13.9412 52.6503C15.1961 44.117 17.6118 36.2401 21.1882 29.0196C23.0078 25.3437 25.0471 22.1929 27.3059 19.5673C32.2628 13.7909 37.7843 10.9355 43.8706 11.0011C46.5686 11.0011 48.6706 11.7888 50.1765 13.3642C51.7451 14.8739 52.5294 17.0729 52.5294 19.9611C52.5294 22.8493 51.7137 25.7703 50.0824 28.7242C48.451 31.6124 46.349 34.6319 43.7765 37.7826C41.2667 40.8678 38.4745 44.117 35.4 47.5303C32.3255 50.9437 29.3137 54.6524 26.3647 58.6565V62.5949C26.3647 66.2708 27.1176 68.9621 28.6235 70.6688C30.1294 72.3753 31.8863 73.2288 33.8941 73.2288C39.2902 73.2288 44.0588 70.4391 48.2 64.8596C49.8941 62.5621 51.1804 61.4134 52.0588 61.4134C52.9372 61.4134 53.3765 62.5293 53.3765 64.7611C53.3765 66.9929 52.7804 69.2903 51.5882 71.6534C50.4588 73.9506 48.9529 76.0842 47.0706 78.0534C45.1882 79.9568 43.0235 81.5322 40.5765 82.7796C38.1294 84.0269 35.6196 84.6503 33.0471 84.6503ZM38.1294 31.7765C39.4471 30.0698 40.4824 28.5273 41.2353 27.1488C41.9882 25.7703 42.3647 24.3591 42.3647 22.915C42.3647 21.4052 41.8628 20.6503 40.8588 20.6503C38.6628 20.6503 36.2157 23.0134 33.5176 27.7396C30.8824 32.4657 28.9059 38.6688 27.5882 46.3488C29.7216 42.9354 31.6666 40.0801 33.4235 37.7826C35.2431 35.4852 36.8118 33.4831 38.1294 31.7765ZM105.601 61.118C106.73 61.118 107.295 62.6277 107.295 65.6473C107.295 67.2883 106.636 69.2903 105.318 71.6534C104.001 73.9506 102.275 76.0842 100.142 78.0534C98.0712 79.9568 95.75 81.5322 93.1771 82.7796C90.6047 84.0269 88.0947 84.6503 85.6476 84.6503C82.3224 84.6503 80.0947 81.598 78.9653 75.4934C77.3341 78.3162 75.2006 80.646 72.5653 82.4842C69.93 84.2565 66.3851 85.1426 61.9302 85.1426C57.538 85.1426 53.9929 83.6983 51.2949 80.8103C48.5968 77.9223 47.2792 74.4103 47.3419 70.2749C47.3419 59.116 50.887 50.3201 57.9772 43.8873C60.989 41.196 63.7811 39.4237 66.3537 38.5703C68.9888 37.717 71.75 37.2903 74.6359 37.2903C77.5224 37.2903 79.8753 37.8154 81.6947 38.8657C82.5735 36.9622 83.5771 36.0103 84.7065 36.0103C86.9029 36.0103 88.9735 37.0278 90.9182 39.0626C92.9265 41.0319 93.93 42.9026 93.93 44.675C93.0518 46.8411 91.7653 49.4339 90.0712 52.4534C89.5694 55.4729 89.3182 59.7068 89.3182 65.1549C89.3182 70.6031 89.9771 73.3273 91.2947 73.3273C92.9265 73.3273 96.8794 69.9139 103.154 63.0873C104.283 61.7745 105.099 61.118 105.601 61.118ZM61.1772 67.0257C61.1772 72.0799 62.9655 74.6073 66.5419 74.6073C70.3694 74.5414 73.5382 72.4085 76.0476 68.2073C76.9265 66.7631 77.6476 64.9908 78.2124 62.8903C78.2124 55.5385 78.84 49.237 80.0947 43.9857C75.0124 45.036 70.5888 47.596 66.8243 51.6657C63.0596 55.7354 61.1772 60.8554 61.1772 67.0257Z" fill="white"/>
</svg>
